<?xml version="1.0" encoding="UTF-8"?>
<svg id="Layer_1" data-name="Layer 1" xmlns="http://www.w3.org/2000/svg" viewBox="0 0 653.06 517.48">
  <defs>
    <style>
      .cls-1 {
        fill: #e1d8f1;
      }

      .cls-2 {
        fill: #d3c6ed;
      }

      .cls-3 {
        fill: #fff;
      }

      .cls-4 {
        fill: #d0bef3;
      }
    </style>
  </defs>
  <path class="cls-1" d="M203.89,344.55l55.01,137.32c8.62,21.51,29.46,35.61,52.63,35.61h61.68l3.06-78.78-14.76-37.02c-13.75-34.49-47.13-57.13-84.26-57.13h-73.37,0Z"/>
  <path class="cls-4" d="M269.85,172.56l-46.3-115.57C209.76,22.58,176.42.02,139.35.02h-73.49l69.13,172.55h134.86Z"/>
  <path class="cls-2" d="M134.86,172.56H0l46.08,115.02c13.79,34.41,47.13,56.97,84.2,56.97h73.49l-68.91-171.99Z"/>
  <path class="cls-3" d="M579.57.01c-37.07,0-70.42,22.56-84.2,56.97l-46.3,115.57-68.91,171.99-9.36,23.37-59.92,149.56h96.5c23.17,0,44.01-14.1,52.63-35.61l55.01-137.32,68.91-171.99L653.06,0h-73.49Z"/>
</svg>