<svg width="2481" height="518" viewBox="0 0 2481 518" fill="none" xmlns="http://www.w3.org/2000/svg">
<path d="M1042.18 150.379L936.3 453.979H826.73L720.85 150.379H816.95L882.45 372.539L947.31 150.379H1042.18Z" fill="white"/>
<path d="M1347.56 328.52H1127.82C1135.77 367.71 1163.31 389.72 1204.92 389.72C1237.99 389.72 1263.06 375.65 1272.84 351.76L1338.93 379.3C1317.51 428.26 1263.66 461.33 1204.87 461.33C1110.6 461.33 1048.21 397.66 1048.21 302.2C1048.21 206.74 1108.82 143.07 1199.99 143.07C1291.16 143.07 1347.47 206.1 1347.47 300.37V328.51H1347.56V328.52ZM1127.23 279.56H1268C1264.34 238.54 1239.22 214.7 1197.61 214.7C1159.06 214.7 1133.35 238.59 1127.23 279.56Z" fill="white"/>
<path d="M1569.13 379.9V453.94H1499.98C1433.89 453.94 1395.93 417.22 1395.93 351.72V56.1602H1479.79V150.43H1564.24V223.88H1479.79V346.88C1479.79 367.71 1493.86 379.95 1518.98 379.95H1569.18L1569.13 379.9Z" fill="white"/>
<path d="M1903.92 328.52H1684.18C1692.13 367.71 1719.67 389.72 1761.28 389.72C1794.35 389.72 1819.43 375.65 1829.2 351.76L1895.29 379.3C1873.87 428.26 1820.02 461.33 1761.24 461.33C1666.96 461.33 1604.57 397.66 1604.57 302.2C1604.57 206.74 1665.18 143.07 1756.35 143.07C1847.52 143.07 1903.83 206.1 1903.83 300.37V328.51H1903.92V328.52ZM1683.59 279.56H1824.36C1820.71 238.54 1795.58 214.7 1753.97 214.7C1715.42 214.7 1689.71 238.59 1683.59 279.56Z" fill="white"/>
<path d="M2153.64 150.379V234.239H2107.14C2067.36 234.239 2041.64 267.309 2041.64 317.459V453.939H1957.78V150.379H2030.63L2041.64 207.289H2042.23C2050.82 173.029 2080.19 150.379 2116.91 150.379H2153.64Z" fill="white"/>
<path d="M2480.48 384.79V453.939H2435.81C2404.62 453.939 2383.2 441.699 2374.01 418.449C2353.83 445.989 2320.16 461.29 2276.68 461.29C2212.42 461.29 2175.1 428.86 2175.1 372.54C2175.1 326.04 2208.76 294.8 2266.91 286.26L2345.24 274.02C2360.54 271.55 2368.49 261.779 2368.49 248.939V247.709C2368.49 225.689 2350.72 211.58 2320.76 211.58C2290.8 211.58 2266.91 229.35 2262.02 259.31L2187.98 240.949C2203.28 179.149 2251.65 143.02 2322.04 143.02C2404.66 143.02 2452.39 183.399 2452.39 251.949V367.639C2452.39 378.649 2457.28 384.77 2465.87 384.77H2480.57H2480.48V384.79ZM2368.44 334V322.99L2296.82 334C2273.58 337.65 2258.87 349.89 2258.87 368.26C2258.87 388.45 2276 400.689 2304.18 400.689C2342.73 400.689 2368.44 374.379 2368.44 333.959V334.01V334Z" fill="white"/>
<path d="M203.89 344.551L258.9 481.871C267.52 503.381 288.36 517.481 311.53 517.481H373.21L376.27 438.701L361.51 401.681C347.76 367.191 314.38 344.551 277.25 344.551H203.88H203.89Z" fill="#E1D8F1"/>
<path d="M269.85 172.56L223.55 56.9895C209.76 22.5795 176.42 0.0195312 139.35 0.0195312H65.8599L134.99 172.57H269.85V172.56Z" fill="#D0BEF3"/>
<path d="M134.86 172.559H0L46.0801 287.579C59.8701 321.989 93.21 344.549 130.28 344.549H203.77L134.86 172.559Z" fill="#D3C6ED"/>
<path d="M579.57 0.0100098C542.5 0.0100098 509.15 22.57 495.37 56.98L449.07 172.55L380.16 344.54L370.8 367.91L310.88 517.47H407.38C430.55 517.47 451.39 503.37 460.01 481.86L515.02 344.54L583.93 172.55L653.06 0H579.57V0.0100098Z" fill="white"/>
</svg>
