<?xml version="1.0" encoding="UTF-8"?>
<svg id="Layer_1" data-name="Layer 1" xmlns="http://www.w3.org/2000/svg" viewBox="0 0 2480.57 517.46">
  <defs>
    <style>
      .cls-1 {
        fill: #bba1e8;
      }

      .cls-2 {
        fill: #401197;
      }

      .cls-3 {
        fill: #8f6fcb;
      }

      .cls-4 {
        fill: #0c1a3d;
      }

      .cls-5 {
        fill: #673db7;
      }
    </style>
  </defs>
  <g>
    <path class="cls-4" d="M1042.18,150.37l-105.88,303.6h-109.57l-105.88-303.6h96.1l65.5,222.16,64.86-222.16h94.87Z"/>
    <path class="cls-4" d="M1347.56,328.51h-219.74c7.95,39.19,35.49,61.2,77.1,61.2,33.07,0,58.14-14.07,67.92-37.96l66.09,27.54c-21.42,48.96-75.27,82.03-134.06,82.03-94.27,0-156.66-63.67-156.66-159.13s60.61-159.13,151.78-159.13,147.48,63.03,147.48,157.3v28.14h.09ZM1127.23,279.54h140.77c-3.66-41.02-28.78-64.86-70.39-64.86-38.55,0-64.26,23.89-70.38,64.86Z"/>
    <path class="cls-4" d="M1569.13,379.88v74.04h-69.15c-66.09,0-104.05-36.72-104.05-102.22V56.14h83.86v94.27h84.45v73.45h-84.45v123c0,20.83,14.07,33.07,39.19,33.07h50.2l-.05-.05h0Z"/>
    <path class="cls-4" d="M1903.92,328.51h-219.74c7.95,39.19,35.49,61.2,77.1,61.2,33.07,0,58.15-14.07,67.92-37.96l66.09,27.54c-21.42,48.96-75.27,82.03-134.05,82.03-94.28,0-156.67-63.67-156.67-159.13s60.61-159.13,151.78-159.13,147.48,63.03,147.48,157.3v28.14h.09ZM1683.59,279.54h140.77c-3.65-41.02-28.78-64.86-70.39-64.86-38.55,0-64.26,23.89-70.38,64.86Z"/>
    <path class="cls-4" d="M2153.64,150.37v83.86h-46.5c-39.78,0-65.5,33.07-65.5,83.22v136.48h-83.86V150.37h72.85l11.01,56.91h.59c8.59-34.26,37.96-56.91,74.68-56.91h36.73Z"/>
    <path class="cls-4" d="M2480.48,384.78v69.15h-44.67c-31.19,0-52.61-12.24-61.8-35.49-20.18,27.54-53.85,42.84-97.33,42.84-64.26,0-101.58-32.43-101.58-88.75,0-46.5,33.66-77.74,91.81-86.28l78.33-12.24c15.3-2.47,23.25-12.24,23.25-25.08v-1.23c0-22.02-17.77-36.13-47.73-36.13s-53.85,17.77-58.74,47.73l-74.04-18.36c15.3-61.8,63.67-97.93,134.06-97.93,82.62,0,130.35,40.38,130.35,108.93v115.69c0,11.01,4.89,17.13,13.48,17.13h14.7-.09ZM2368.44,333.99v-11.01l-71.62,11.01c-23.24,3.65-37.95,15.89-37.95,34.26,0,20.19,17.13,32.43,45.31,32.43,38.55,0,64.26-26.31,64.26-66.73v.05Z"/>
  </g>
  <path class="cls-5" d="M203.89,344.54l55.01,137.32c8.62,21.51,29.46,35.61,52.63,35.61h61.68s3.06-78.78,3.06-78.78l-14.76-37.02c-13.75-34.49-47.13-57.13-84.26-57.13h-73.37Z"/>
  <path class="cls-1" d="M269.85,172.55l-46.3-115.57C209.76,22.56,176.42,0,139.35,0h-73.49l69.13,172.55h134.86Z"/>
  <path class="cls-3" d="M134.86,172.55H0l46.08,115.02c13.79,34.41,47.13,56.97,84.2,56.97h73.49l-68.91-171.99Z"/>
  <path class="cls-2" d="M579.57,0c-37.07,0-70.42,22.56-84.2,56.97l-46.3,115.57-68.91,171.99-9.36,23.37-59.92,149.56h96.5c23.17,0,44.01-14.1,52.63-35.61l55.01-137.32,68.91-171.99L653.06,0h-73.49Z"/>
</svg>